<svg xmlns="http://www.w3.org/2000/svg" width="1920" height="1080" viewBox="0 0 1920 1080" role="img" aria-labelledby="title desc">
  <title id="title">Brain Tumor MRI Classification Project Cover</title>
  <desc id="desc">A medical AI cover showing brain MRI classification with custom CNN, pretrained models, metrics, and an app preview.</desc>
  <defs>
    <linearGradient id="bg" x1="0" y1="0" x2="1" y2="1">
      <stop offset="0" stop-color="#101319"/>
      <stop offset="0.48" stop-color="#151b23"/>
      <stop offset="1" stop-color="#0d1117"/>
    </linearGradient>
    <linearGradient id="panel" x1="0" y1="0" x2="1" y2="1">
      <stop offset="0" stop-color="#1f2933" stop-opacity="0.9"/>
      <stop offset="1" stop-color="#0f1720" stop-opacity="0.82"/>
    </linearGradient>
    <linearGradient id="cyan" x1="0" y1="0" x2="1" y2="1">
      <stop offset="0" stop-color="#6ee7f9"/>
      <stop offset="1" stop-color="#0ea5b7"/>
    </linearGradient>
    <linearGradient id="amber" x1="0" y1="0" x2="1" y2="1">
      <stop offset="0" stop-color="#ffd166"/>
      <stop offset="1" stop-color="#f59e0b"/>
    </linearGradient>
    <linearGradient id="green" x1="0" y1="0" x2="1" y2="1">
      <stop offset="0" stop-color="#8df5b5"/>
      <stop offset="1" stop-color="#22c55e"/>
    </linearGradient>
    <linearGradient id="magenta" x1="0" y1="0" x2="1" y2="1">
      <stop offset="0" stop-color="#f0abfc"/>
      <stop offset="1" stop-color="#d946ef"/>
    </linearGradient>
    <radialGradient id="mriGlow" cx="50%" cy="45%" r="62%">
      <stop offset="0" stop-color="#cbd5e1" stop-opacity="0.34"/>
      <stop offset="0.5" stop-color="#38bdf8" stop-opacity="0.16"/>
      <stop offset="1" stop-color="#020617" stop-opacity="0"/>
    </radialGradient>
    <filter id="softGlow" x="-50%" y="-50%" width="200%" height="200%">
      <feGaussianBlur stdDeviation="9" result="blur"/>
      <feMerge>
        <feMergeNode in="blur"/>
        <feMergeNode in="SourceGraphic"/>
      </feMerge>
    </filter>
    <filter id="shadow" x="-20%" y="-20%" width="140%" height="140%">
      <feDropShadow dx="0" dy="18" stdDeviation="24" flood-color="#000000" flood-opacity="0.38"/>
    </filter>
    <pattern id="grid" width="52" height="52" patternUnits="userSpaceOnUse">
      <path d="M 52 0 L 0 0 0 52" fill="none" stroke="#94a3b8" stroke-opacity="0.07" stroke-width="1"/>
    </pattern>
    <pattern id="scanLines" width="8" height="8" patternUnits="userSpaceOnUse">
      <path d="M 0 0 H 8" stroke="#e2e8f0" stroke-opacity="0.06" stroke-width="1"/>
    </pattern>
  </defs>

  <rect width="1920" height="1080" fill="url(#bg)"/>
  <rect width="1920" height="1080" fill="url(#grid)"/>
  <path d="M116 900 C356 787 429 960 681 820 C909 694 1005 594 1250 620 C1451 642 1586 533 1818 392" fill="none" stroke="#38bdf8" stroke-opacity="0.1" stroke-width="2"/>
  <path d="M84 220 C288 286 409 130 621 222 C854 323 1004 227 1177 160 C1407 72 1606 176 1822 92" fill="none" stroke="#f59e0b" stroke-opacity="0.1" stroke-width="2"/>

  <g transform="translate(96 78)">
    <text x="0" y="0" fill="#e5eef7" font-family="Inter, Segoe UI, Arial, sans-serif" font-size="70" font-weight="800">
      Brain Tumor MRI Classification
    </text>
    <text x="2" y="58" fill="#9fb2c6" font-family="Inter, Segoe UI, Arial, sans-serif" font-size="30" font-weight="500">
      Custom CNN vs Transfer Learning
    </text>
    <g transform="translate(0 102)">
      <rect x="0" y="0" width="230" height="42" rx="21" fill="#14212b" stroke="#2dd4bf" stroke-opacity="0.55"/>
      <circle cx="24" cy="21" r="7" fill="#22c55e"/>
      <text x="44" y="28" fill="#d9f99d" font-family="Inter, Segoe UI, Arial, sans-serif" font-size="17" font-weight="700">MRI Image Classification</text>
    </g>
  </g>

  <g transform="translate(96 258)" filter="url(#shadow)">
    <rect x="0" y="0" width="568" height="630" rx="28" fill="url(#panel)" stroke="#334155" stroke-width="1.4"/>
    <text x="34" y="52" fill="#e2e8f0" font-family="Inter, Segoe UI, Arial, sans-serif" font-size="26" font-weight="750">Input MRI Scan</text>
    <text x="34" y="86" fill="#8ea4b8" font-family="Inter, Segoe UI, Arial, sans-serif" font-size="17">Glioma • Meningioma • No Tumor • Pituitary</text>

    <g transform="translate(92 122)">
      <circle cx="194" cy="194" r="194" fill="#050a12" stroke="#475569" stroke-width="2"/>
      <circle cx="194" cy="194" r="177" fill="url(#mriGlow)"/>
      <circle cx="194" cy="194" r="172" fill="none" stroke="#cbd5e1" stroke-opacity="0.18" stroke-width="1.5"/>
      <circle cx="194" cy="194" r="133" fill="none" stroke="#94a3b8" stroke-opacity="0.16" stroke-width="1"/>
      <rect x="22" y="22" width="344" height="344" fill="url(#scanLines)" opacity="0.75" clip-path="url(#brainClip)"/>

      <clipPath id="brainClip">
        <path d="M195 54 C257 54 309 98 324 158 C344 241 294 331 206 335 C117 340 60 272 61 195 C62 114 115 54 195 54 Z"/>
      </clipPath>

      <path d="M195 54 C257 54 309 98 324 158 C344 241 294 331 206 335 C117 340 60 272 61 195 C62 114 115 54 195 54 Z"
            fill="#111827" stroke="#e2e8f0" stroke-opacity="0.72" stroke-width="4"/>
      <path d="M196 73 C166 92 158 124 170 154 C183 186 168 215 137 229 C101 246 92 283 124 305"
            fill="none" stroke="#94a3b8" stroke-opacity="0.46" stroke-width="7" stroke-linecap="round"/>
      <path d="M205 78 C240 100 247 133 230 160 C214 185 227 213 262 224 C299 236 310 272 283 302"
            fill="none" stroke="#cbd5e1" stroke-opacity="0.4" stroke-width="7" stroke-linecap="round"/>
      <path d="M130 143 C160 124 208 126 242 146" fill="none" stroke="#64748b" stroke-opacity="0.5" stroke-width="5" stroke-linecap="round"/>
      <path d="M111 205 C147 188 194 192 227 213" fill="none" stroke="#64748b" stroke-opacity="0.45" stroke-width="5" stroke-linecap="round"/>
      <path d="M151 272 C187 252 232 256 263 279" fill="none" stroke="#64748b" stroke-opacity="0.42" stroke-width="5" stroke-linecap="round"/>
      <g filter="url(#softGlow)">
        <path d="M225 132 C265 134 292 166 287 203 C281 244 239 261 204 240 C177 224 170 184 190 157 C199 145 209 136 225 132 Z"
              fill="#fbbf24" fill-opacity="0.78" stroke="#fff7ed" stroke-width="2"/>
        <circle cx="243" cy="188" r="24" fill="#fde68a" fill-opacity="0.5"/>
      </g>
      <path d="M195 54 C257 54 309 98 324 158 C344 241 294 331 206 335 C117 340 60 272 61 195 C62 114 115 54 195 54 Z"
            fill="none" stroke="#38bdf8" stroke-opacity="0.2" stroke-width="12"/>
    </g>

    <g transform="translate(36 538)">
      <rect x="0" y="0" width="496" height="54" rx="14" fill="#101923" stroke="#263546"/>
      <text x="23" y="34" fill="#cbd5e1" font-family="Inter, Segoe UI, Arial, sans-serif" font-size="18" font-weight="700">Dataset</text>
      <text x="116" y="34" fill="#8ea4b8" font-family="Inter, Segoe UI, Arial, sans-serif" font-size="17">Training / Validation / Testing</text>
      <circle cx="450" cy="27" r="9" fill="#38bdf8"/>
      <circle cx="474" cy="27" r="9" fill="#f59e0b"/>
    </g>
  </g>

  <g transform="translate(710 320)">
    <path d="M0 252 C94 252 104 86 201 86" stroke="#38bdf8" stroke-opacity="0.42" stroke-width="4" fill="none"/>
    <path d="M0 300 C103 300 98 252 201 252" stroke="#22c55e" stroke-opacity="0.38" stroke-width="4" fill="none"/>
    <path d="M0 348 C106 348 101 420 201 420" stroke="#f59e0b" stroke-opacity="0.38" stroke-width="4" fill="none"/>
    <g fill="#38bdf8" opacity="0.9">
      <circle cx="0" cy="252" r="7"/>
      <circle cx="0" cy="300" r="7"/>
      <circle cx="0" cy="348" r="7"/>
    </g>
  </g>

  <g transform="translate(846 210)" filter="url(#shadow)">
    <rect x="0" y="0" width="444" height="710" rx="28" fill="url(#panel)" stroke="#334155" stroke-width="1.4"/>
    <text x="34" y="52" fill="#e2e8f0" font-family="Inter, Segoe UI, Arial, sans-serif" font-size="26" font-weight="750">Model Pipeline</text>
    <text x="34" y="86" fill="#8ea4b8" font-family="Inter, Segoe UI, Arial, sans-serif" font-size="17">Feature learning and comparison</text>

    <g transform="translate(42 126)">
      <rect x="0" y="0" width="360" height="112" rx="18" fill="#101923" stroke="#2dd4bf" stroke-opacity="0.6"/>
      <text x="22" y="35" fill="#f8fafc" font-family="Inter, Segoe UI, Arial, sans-serif" font-size="21" font-weight="750">Custom CNN</text>
      <text x="22" y="65" fill="#8ea4b8" font-family="Inter, Segoe UI, Arial, sans-serif" font-size="15">Conv • Pool • BatchNorm • Dropout</text>
      <g transform="translate(248 24)">
        <rect x="0" y="0" width="22" height="58" fill="#38bdf8" opacity="0.9"/>
        <rect x="34" y="8" width="22" height="50" fill="#2dd4bf" opacity="0.82"/>
        <rect x="68" y="18" width="22" height="40" fill="#22c55e" opacity="0.82"/>
      </g>
    </g>

    <g transform="translate(42 272)">
      <rect x="0" y="0" width="360" height="214" rx="18" fill="#101923" stroke="#f59e0b" stroke-opacity="0.55"/>
      <text x="22" y="36" fill="#f8fafc" font-family="Inter, Segoe UI, Arial, sans-serif" font-size="21" font-weight="750">Pretrained Models</text>
      <text x="22" y="66" fill="#8ea4b8" font-family="Inter, Segoe UI, Arial, sans-serif" font-size="15">Transfer learning on MRI classes</text>

      <g transform="translate(22 90)">
        <rect x="0" y="0" width="145" height="42" rx="12" fill="#18222d" stroke="#334155"/>
        <text x="16" y="27" fill="#e2e8f0" font-family="Inter, Segoe UI, Arial, sans-serif" font-size="15" font-weight="700">MobileNetV2</text>
        <rect x="173" y="0" width="145" height="42" rx="12" fill="#18222d" stroke="#334155"/>
        <text x="190" y="27" fill="#e2e8f0" font-family="Inter, Segoe UI, Arial, sans-serif" font-size="15" font-weight="700">EfficientNetB0</text>
        <rect x="0" y="60" width="145" height="42" rx="12" fill="#18222d" stroke="#334155"/>
        <text x="16" y="87" fill="#e2e8f0" font-family="Inter, Segoe UI, Arial, sans-serif" font-size="15" font-weight="700">ResNet50</text>
        <rect x="173" y="60" width="145" height="42" rx="12" fill="#18222d" stroke="#334155"/>
        <text x="190" y="87" fill="#e2e8f0" font-family="Inter, Segoe UI, Arial, sans-serif" font-size="15" font-weight="700">Fine Tuning</text>
      </g>
    </g>

    <g transform="translate(42 532)">
      <rect x="0" y="0" width="360" height="120" rx="18" fill="#101923" stroke="#a855f7" stroke-opacity="0.46"/>
      <text x="22" y="36" fill="#f8fafc" font-family="Inter, Segoe UI, Arial, sans-serif" font-size="21" font-weight="750">Evaluation</text>
      <text x="22" y="66" fill="#8ea4b8" font-family="Inter, Segoe UI, Arial, sans-serif" font-size="15">Accuracy • Precision • Recall • F1</text>
      <g transform="translate(251 22)">
        <rect x="0" y="44" width="14" height="34" fill="#38bdf8"/>
        <rect x="24" y="26" width="14" height="52" fill="#22c55e"/>
        <rect x="48" y="12" width="14" height="66" fill="#f59e0b"/>
        <rect x="72" y="32" width="14" height="46" fill="#d946ef"/>
      </g>
    </g>
  </g>

  <g transform="translate(1306 258)" filter="url(#shadow)">
    <rect x="0" y="0" width="516" height="630" rx="28" fill="url(#panel)" stroke="#334155" stroke-width="1.4"/>
    <text x="34" y="52" fill="#e2e8f0" font-family="Inter, Segoe UI, Arial, sans-serif" font-size="26" font-weight="750">Results and App</text>
    <text x="34" y="86" fill="#8ea4b8" font-family="Inter, Segoe UI, Arial, sans-serif" font-size="17">Pick the best model, then deploy it</text>

    <g transform="translate(34 126)">
      <rect x="0" y="0" width="212" height="190" rx="18" fill="#101923" stroke="#263546"/>
      <text x="20" y="34" fill="#f8fafc" font-family="Inter, Segoe UI, Arial, sans-serif" font-size="19" font-weight="750">Confusion Matrix</text>
      <g transform="translate(28 58)">
        <rect x="0" y="0" width="32" height="32" fill="#22c55e" opacity="0.92"/>
        <rect x="38" y="0" width="32" height="32" fill="#38bdf8" opacity="0.24"/>
        <rect x="76" y="0" width="32" height="32" fill="#f59e0b" opacity="0.2"/>
        <rect x="114" y="0" width="32" height="32" fill="#d946ef" opacity="0.18"/>
        <rect x="0" y="38" width="32" height="32" fill="#38bdf8" opacity="0.18"/>
        <rect x="38" y="38" width="32" height="32" fill="#22c55e" opacity="0.86"/>
        <rect x="76" y="38" width="32" height="32" fill="#f59e0b" opacity="0.22"/>
        <rect x="114" y="38" width="32" height="32" fill="#d946ef" opacity="0.15"/>
        <rect x="0" y="76" width="32" height="32" fill="#38bdf8" opacity="0.24"/>
        <rect x="38" y="76" width="32" height="32" fill="#f59e0b" opacity="0.2"/>
        <rect x="76" y="76" width="32" height="32" fill="#22c55e" opacity="0.88"/>
        <rect x="114" y="76" width="32" height="32" fill="#d946ef" opacity="0.22"/>
        <rect x="0" y="114" width="32" height="32" fill="#38bdf8" opacity="0.16"/>
        <rect x="38" y="114" width="32" height="32" fill="#f59e0b" opacity="0.18"/>
        <rect x="76" y="114" width="32" height="32" fill="#d946ef" opacity="0.24"/>
        <rect x="114" y="114" width="32" height="32" fill="#22c55e" opacity="0.9"/>
      </g>
    </g>

    <g transform="translate(270 126)">
      <rect x="0" y="0" width="212" height="190" rx="18" fill="#101923" stroke="#263546"/>
      <text x="20" y="34" fill="#f8fafc" font-family="Inter, Segoe UI, Arial, sans-serif" font-size="19" font-weight="750">Metrics</text>
      <g transform="translate(22 62)" font-family="Inter, Segoe UI, Arial, sans-serif" font-size="13" font-weight="700">
        <text x="0" y="10" fill="#8ea4b8">Acc</text>
        <rect x="54" y="0" width="120" height="12" rx="6" fill="#1e293b"/>
        <rect x="54" y="0" width="103" height="12" rx="6" fill="url(#cyan)"/>
        <text x="0" y="43" fill="#8ea4b8">Prec</text>
        <rect x="54" y="33" width="120" height="12" rx="6" fill="#1e293b"/>
        <rect x="54" y="33" width="94" height="12" rx="6" fill="url(#green)"/>
        <text x="0" y="76" fill="#8ea4b8">Recall</text>
        <rect x="54" y="66" width="120" height="12" rx="6" fill="#1e293b"/>
        <rect x="54" y="66" width="88" height="12" rx="6" fill="url(#amber)"/>
        <text x="0" y="109" fill="#8ea4b8">F1</text>
        <rect x="54" y="99" width="120" height="12" rx="6" fill="#1e293b"/>
        <rect x="54" y="99" width="99" height="12" rx="6" fill="url(#magenta)"/>
      </g>
    </g>

    <g transform="translate(34 352)">
      <rect x="0" y="0" width="448" height="222" rx="22" fill="#101923" stroke="#2dd4bf" stroke-opacity="0.42"/>
      <g transform="translate(20 18)">
        <circle cx="10" cy="10" r="5" fill="#ef4444"/>
        <circle cx="29" cy="10" r="5" fill="#f59e0b"/>
        <circle cx="48" cy="10" r="5" fill="#22c55e"/>
        <text x="78" y="16" fill="#8ea4b8" font-family="Inter, Segoe UI, Arial, sans-serif" font-size="14" font-weight="700">Streamlit / Gradio App</text>
      </g>
      <g transform="translate(28 62)">
        <rect x="0" y="0" width="150" height="116" rx="16" fill="#050a12" stroke="#334155"/>
        <path d="M75 19 C107 19 131 44 131 76 C131 105 106 111 76 111 C45 111 19 104 19 76 C19 44 43 19 75 19 Z"
              fill="#111827" stroke="#cbd5e1" stroke-opacity="0.65" stroke-width="2"/>
        <path d="M68 42 C89 43 105 58 103 78 C100 97 79 104 62 94 C49 86 47 64 58 51 C61 47 64 44 68 42 Z"
              fill="#fbbf24" fill-opacity="0.68"/>
      </g>
      <g transform="translate(206 62)" font-family="Inter, Segoe UI, Arial, sans-serif">
        <text x="0" y="20" fill="#f8fafc" font-size="20" font-weight="800">Prediction</text>
        <rect x="0" y="42" width="178" height="44" rx="14" fill="#14212b" stroke="#22c55e" stroke-opacity="0.55"/>
        <text x="18" y="70" fill="#bbf7d0" font-size="17" font-weight="750">Pituitary Tumor</text>
        <text x="0" y="124" fill="#8ea4b8" font-size="15">Confidence</text>
        <rect x="92" y="112" width="122" height="12" rx="6" fill="#1e293b"/>
        <rect x="92" y="112" width="104" height="12" rx="6" fill="#22c55e"/>
      </g>
    </g>
  </g>

  <g transform="translate(698 940)">
    <rect x="0" y="0" width="524" height="58" rx="29" fill="#101923" stroke="#334155"/>
    <text x="34" y="37" fill="#cbd5e1" font-family="Inter, Segoe UI, Arial, sans-serif" font-size="18" font-weight="700">Train</text>
    <path d="M94 29 H151" stroke="#38bdf8" stroke-width="3" stroke-linecap="round"/>
    <circle cx="166" cy="29" r="7" fill="#38bdf8"/>
    <text x="190" y="37" fill="#cbd5e1" font-family="Inter, Segoe UI, Arial, sans-serif" font-size="18" font-weight="700">Compare</text>
    <path d="M286 29 H343" stroke="#f59e0b" stroke-width="3" stroke-linecap="round"/>
    <circle cx="358" cy="29" r="7" fill="#f59e0b"/>
    <text x="382" y="37" fill="#cbd5e1" font-family="Inter, Segoe UI, Arial, sans-serif" font-size="18" font-weight="700">Deploy</text>
  </g>

  <g opacity="0.82">
    <circle cx="742" cy="82" r="4" fill="#38bdf8"/>
    <circle cx="777" cy="134" r="3" fill="#f59e0b"/>
    <circle cx="1654" cy="178" r="4" fill="#22c55e"/>
    <circle cx="1562" cy="934" r="3" fill="#d946ef"/>
    <circle cx="356" cy="964" r="3" fill="#38bdf8"/>
  </g>
</svg>
